/vscmnt/brussel_pixiu_data/_data_brussel/112/vsc11236/PredSimResults/SUBJ09mtu3D/worker1.mot
version=1
nRows=5
nColumns=50
inDegrees=yes
endheader
                time	         pelvis_tilt	         pelvis_list	     pelvis_rotation	           pelvis_tx	           pelvis_ty	           pelvis_tz	       hip_flexion_r	     hip_adduction_r	      hip_rotation_r	        knee_angle_r	       ankle_angle_r	         mtp_angle_r	       hip_flexion_l	     hip_adduction_l	      hip_rotation_l	        knee_angle_l	       ankle_angle_l	         mtp_angle_l	    lumbar_extension	      lumbar_bending	     lumbar_rotation	 ercspn_r/activation	 intobl_r/activation	 extobl_r/activation	    abd_r/activation	    add_r/activation	hamstrings_r/activation	bifemsh_r/activation	glut_max_r/activation	iliopsoas_r/activation	rect_fem_r/activation	  vasti_r/activation	gastroc_r/activation	 soleus_r/activation	tib_ant_r/activation	 ercspn_l/activation	 intobl_l/activation	 extobl_l/activation	    abd_l/activation	    add_l/activation	hamstrings_l/activation	bifemsh_l/activation	glut_max_l/activation	iliopsoas_l/activation	rect_fem_l/activation	  vasti_l/activation	gastroc_l/activation	 soleus_l/activation	tib_ant_l/activation	
          0.59079948	         -2.37987499	          2.53443199	         -6.61933804	          0.73259135	          0.99437166	          0.00371737	        -14.39917291	         -2.91693419	          4.34341933	         -9.86704298	          9.24436626	         29.44563961	         23.26799317	          1.60965572	          1.96571930	          0.84232077	          3.47549214	          0.23279280	        -12.99813383	         -1.16799653	          4.55899719	          0.00999999	          0.00999999	          0.00999999	          0.05042300	          0.00999999	          0.00999999	          0.19648454	          0.02456683	          0.28208770	          0.00999999	          0.00999999	          0.38968513	          0.22519367	          0.00999999	          0.04814153	          0.17876107	          0.04212683	          0.03234286	          0.08833695	          0.04220003	          0.19031931	          0.01108987	          0.07126584	          0.01651180	          0.01139928	          0.00999999	          0.00999999	          0.28792536	
          0.60261547	         -2.39277934	          2.59353643	         -6.50608831	          0.75110929	          0.99242273	          0.00325553	        -14.82546538	         -3.00667252	          3.83444761	        -11.04067521	          8.44342686	         31.30133845	         22.65130049	          1.92314808	          1.99811738	          0.40766432	          2.68934754	          0.24089191	        -12.58188207	         -1.51675917	          4.66238824	          0.03254408	          0.00999999	          0.00999999	          0.04212683	          0.02445409	          0.02513193	          0.16415666	          0.02052481	          0.28787578	          0.00999999	          0.00999999	          0.36118450	          0.18814222	          0.00999999	          0.04022073	          0.14934925	          0.03519564	          0.03715788	          0.09904157	          0.03525680	          0.15900580	          0.06506849	          0.05954037	          0.01379509	          0.01196932	          0.01714783	          0.01539923	          0.29585460	
          0.61443145	         -2.39090169	          2.68530769	         -6.35130592	          0.76977314	          0.99073969	          0.00277195	        -15.04140842	         -3.10963075	          3.29027005	        -12.62615060	          7.53653111	         33.16315772	         21.96932185	          2.24020306	          2.00840767	         -0.19003845	          2.01359305	          0.21758013	        -12.16412277	         -1.91590379	          4.73590788	          0.03379803	          0.00999999	          0.00999999	          0.03519564	          0.02043063	          0.02440373	          0.13714774	          0.01714784	          0.26261816	          0.00999999	          0.00999999	          0.32844796	          0.15718691	          0.00999999	          0.03360316	          0.12477660	          0.02940485	          0.10159803	          0.08274612	          0.04383779	          0.13284434	          0.06603551	          0.04974410	          0.01152536	          0.00999999	          0.01432648	          0.01286558	          0.36613519	
          0.62624744	         -2.37993141	          2.79711669	         -6.15474483	          0.78829343	          0.98959070	          0.00225193	        -14.95119036	         -3.21309607	          2.71745826	        -14.73287964	          6.44465294	         34.99356592	         21.21423149	          2.57209525	          1.98925700	         -0.62171871	          1.19675762	          0.18733881	        -11.77626721	         -2.34806189	          4.77688886	          0.05924169	          0.00999999	          0.00999999	          0.02940485	          0.02003283	          0.02767449	          0.11458262	          0.01432648	          0.22682891	          0.00999999	          0.00999999	          0.27440794	          0.13132472	          0.00999999	          0.02807438	          0.10424693	          0.02456683	          0.14277113	          0.08446976	          0.04239959	          0.11098727	          0.08033705	          0.04155963	          0.00999999	          0.01000000	          0.01196932	          0.01074878	          0.40604128	
          0.63806343	         -2.36240894	          2.92023968	         -5.92087076	          0.80643270	          0.98916266	          0.00170178	        -14.49460395	         -3.31393826	          2.12858279	        -17.41860547	          5.13456967	         36.62688873	         20.45830202	          2.91484439	          1.96099298	         -1.06965395	          0.61594219	          0.14903224	        -11.44374735	         -2.80232721	          4.78664194	          0.08300998	          0.00999999	          0.00999999	          0.02456683	          0.04055532	          0.02586294	          0.10570095	          0.01196932	          0.18950842	          0.00999999	          0.00999999	          0.22925920	          0.10971767	          0.00999999	          0.02918602	          0.08709503	          0.02052481	          0.17755635	          0.10006430	          0.04415614	          0.09272637	          0.09653421	          0.03472177	          0.00999999	          0.01000003	          0.00999999	          0.00999999	          0.42418290	
